<?xml version="1.0" standalone="no"?>
<!DOCTYPE svg PUBLIC "-//W3C//DTD SVG 20010904//EN"
 "http://www.w3.org/TR/2001/REC-SVG-20010904/DTD/svg10.dtd">
<svg version="1.0" xmlns="http://www.w3.org/2000/svg"
 width="700.000000pt" height="700.000000pt" viewBox="0 0 700.000000 700.000000"
 preserveAspectRatio="xMidYMid meet">
<metadata>
Created by potrace 1.14, written by Peter Selinger 2001-2017
</metadata>
<g transform="translate(0.000000,700.000000) scale(0.100000,-0.100000)"
fill="#000000" stroke="none">
<path d="M4025 6986 c-22 -8 -92 -31 -155 -51 -271 -87 -521 -236 -691 -411
-204 -211 -313 -360 -408 -559 -52 -109 -126 -308 -146 -394 -49 -208 -57
-278 -59 -512 -2 -201 5 -315 29 -439 40 -207 86 -353 176 -557 33 -76 62
-145 63 -153 4 -19 -20 -147 -45 -240 -46 -172 -196 -418 -361 -591 -184 -193
-430 -341 -688 -413 -107 -31 -217 -44 -365 -44 -199 0 -278 11 -417 58 -162
55 -312 147 -433 265 -94 92 -168 189 -280 372 -73 120 -101 153 -130 153 -38
0 -70 -19 -91 -53 -17 -29 -19 -52 -19 -227 1 -223 9 -314 40 -470 3 -14 7
-37 10 -51 3 -14 16 -66 30 -115 130 -452 395 -869 736 -1155 216 -182 501
-340 798 -440 100 -34 127 -36 136 -9 3 10 8 88 10 172 8 262 16 339 50 476
29 115 139 342 191 396 48 49 90 50 133 1 17 -20 31 -47 31 -60 0 -13 -27 -77
-60 -142 -64 -127 -105 -252 -118 -366 -13 -108 -4 -765 12 -867 3 -14 7 -50
11 -80 3 -31 15 -89 25 -130 11 -41 18 -75 17 -77 -1 -1 -166 -3 -367 -5 -409
-3 -394 0 -430 -81 -31 -70 -2 -158 58 -174 33 -10 3942 -10 4162 -1 191 8
212 14 227 71 19 70 -7 146 -57 167 -39 16 -124 19 -575 20 l-420 0 -18 56
c-35 111 -113 210 -222 282 -38 25 -72 47 -74 48 -2 2 14 32 37 66 107 168
149 289 155 450 l3 78 86 117 c46 65 101 145 121 178 41 70 121 238 162 343
l29 73 22 -61 c29 -81 61 -126 104 -145 102 -45 182 -8 246 115 27 52 30 242
5 333 -36 131 -96 229 -232 380 l-71 78 -1 227 c-1 241 4 287 49 405 l26 67
71 1 c180 2 283 14 492 60 251 56 499 173 705 332 98 76 257 242 333 348 112
156 250 458 271 594 4 20 8 40 10 44 4 6 9 39 26 166 9 64 6 410 -3 435 -3 8
-8 34 -11 57 -22 179 -131 453 -251 633 -70 104 -213 247 -315 313 -191 123
-323 161 -555 161 -151 0 -230 -15 -470 -85 -101 -29 -124 -32 -280 -35 -132
-3 -180 0 -215 12 -141 47 -194 103 -164 172 7 18 21 35 30 39 8 3 50 -2 93
-12 84 -19 193 -24 286 -12 59 7 197 42 224 57 17 9 -145 118 -267 180 -100
50 -264 112 -387 147 -84 24 -107 26 -365 29 -217 3 -283 1 -315 -10z m232
-553 c98 -25 179 -71 259 -146 106 -99 164 -190 211 -328 25 -76 25 -372 -1
-439 -9 -25 -18 -49 -19 -55 -7 -26 -71 -142 -106 -188 -92 -126 -222 -212
-351 -236 -59 -10 -260 -10 -297 1 -155 45 -303 180 -391 355 -84 167 -100
384 -41 564 46 140 111 243 210 332 57 52 184 124 234 133 13 2 34 8 46 13 38
14 184 10 246 -6z m1953 -559 c46 -17 118 -69 157 -114 12 -14 36 -53 53 -88
25 -49 33 -77 34 -130 4 -110 -21 -161 -87 -177 -23 -6 -33 -1 -66 32 -28 27
-41 51 -46 78 -23 149 -83 203 -233 210 -85 4 -112 45 -77 119 40 83 151 112
265 70z m520 -1124 c43 -61 11 -152 -92 -264 -118 -129 -226 -195 -436 -265
-134 -45 -217 -55 -472 -54 -230 0 -297 9 -460 63 -229 75 -425 195 -489 301
-41 66 -18 149 50 184 16 9 31 15 34 15 17 -2 100 -43 150 -75 127 -82 308
-153 480 -190 107 -23 380 -29 495 -10 124 21 253 60 350 108 66 33 106 62
180 133 52 51 104 94 115 96 32 7 73 -12 95 -42z m-3596 -1450 c85 -52 76
-208 -14 -255 -36 -19 -61 -19 -103 -1 -102 42 -100 213 3 264 47 23 67 22
114 -8z m1672 -19 c-2 -9 -7 -29 -10 -46 -4 -16 -9 -41 -12 -55 -3 -14 -7
-207 -9 -430 -4 -435 -3 -427 -34 -573 -115 -548 -508 -1017 -1026 -1222 -135
-53 -325 -100 -325 -80 0 4 9 38 20 74 44 150 52 265 37 510 l-7 103 33 27
c51 42 202 194 218 220 15 23 20 24 125 24 60 -1 133 4 162 10 l54 11 41 -46
c53 -58 90 -77 144 -72 81 7 142 65 174 164 19 57 24 194 9 251 -22 87 -83
191 -150 260 -60 61 -96 83 -192 123 -41 16 -42 23 -12 114 81 245 285 492
484 588 62 30 143 55 204 63 61 8 78 4 72 -18z m-2061 -326 c49 -48 32 -149
-30 -177 -49 -22 -113 25 -116 87 -3 51 0 61 27 89 35 35 86 35 119 1z m771
-323 c27 -23 48 -58 64 -107 25 -81 72 -142 140 -184 51 -31 84 -40 190 -47
42 -3 93 -14 115 -25 72 -34 84 -117 25 -174 -30 -29 -32 -29 -158 -30 -70 -1
-150 3 -177 10 -177 40 -327 221 -342 411 -8 90 36 164 97 164 14 0 34 -8 46
-18z m-810 -481 c144 -57 231 -123 349 -266 67 -82 137 -238 161 -363 15 -76
21 -361 9 -427 -20 -105 -59 -211 -138 -374 -73 -149 -134 -236 -173 -245 -62
-16 -119 41 -110 111 2 21 23 72 46 113 132 240 165 357 164 590 0 294 -160
546 -399 628 -16 6 -64 16 -105 23 -86 15 -127 44 -139 99 -10 47 19 106 62
126 46 21 205 12 273 -15z m755 -1554 c3 -57 14 -127 33 -212 19 -81 21 -101
10 -108 -7 -4 -61 -6 -120 -5 l-106 3 -23 61 c-21 55 -45 97 -91 161 -17 24
-7 56 21 67 15 6 104 21 190 33 22 3 41 6 42 7 9 8 43 2 44 -7z"/>
<path d="M4030 6160 c-13 -8 -13 -10 -1 -10 33 0 90 -52 111 -102 30 -70 20
-127 -34 -186 -100 -111 -246 -26 -246 141 0 54 -1 58 -17 46 -30 -26 -83
-118 -97 -171 -22 -81 -15 -248 13 -319 46 -116 163 -227 269 -255 92 -24 202
-7 286 44 282 172 262 644 -32 789 -48 24 -71 28 -147 30 -50 1 -97 -2 -105
-7z m351 -319 c44 -45 35 -111 -19 -143 -50 -30 -112 18 -112 86 0 31 52 86
80 86 12 0 35 -13 51 -29z"/>
</g>
</svg>
